<svg xmlns="http://www.w3.org/2000/svg" fill="none" viewBox="-0.5 -0.5 14 14" height="50" width="50">
    <g id="star-badge--ribbon-reward-like-social-rating-media">
        <path id="Vector 2356" fill="#ffffff"
            d="M2.6752142857142855 10.300642857142858 0.4642857142857143 10.892142857142858l2.0465714285714287 -3.5452857142857144 2.5331428571428574 2.0883571428571432 -1.7754285714285714 3.075428571428571 -0.5933571428571429 -2.210928571428571Z"
            stroke-width="1"></path>
        <path id="Vector 2354" fill="#ffffff"
            d="m10.323857142857143 10.300642857142858 2.211857142857143 0.5924285714285714 -2.0465714285714287 -3.5452857142857144 -2.5331428571428574 2.0883571428571432 1.7754285714285714 3.075428571428571 0.5924285714285714 -2.210928571428571Z"
            stroke-width="1"></path>
        <path id="Vector 2355" stroke="#4147d5" stroke-linecap="round" stroke-linejoin="round"
            d="m10.502142857142857 7.370071428571429 2.033571428571429 3.523 -2.211857142857143 -0.5924285714285714 -0.5924285714285714 2.210928571428571 -1.7624285714285715 -3.054071428571429"
            stroke-width="1"></path>
        <path id="Ellipse 19" fill="#d7e0ff"
            d="M11.099214285714286 5.090428571428572a4.602 4.602 0 1 1 -9.204 0 4.602 4.602 0 0 1 9.204 0Z"
            stroke-width="1"></path>
        <path id="Ellipse 20" stroke="#4147d5" stroke-linecap="round" stroke-linejoin="round"
            d="M11.099214285714286 5.090428571428572a4.602 4.602 0 1 1 -9.204 0 4.602 4.602 0 0 1 9.204 0Z"
            stroke-width="1"></path>
        <path id="Vector" fill="#ffffff"
            d="m6.685714285714286 2.5916428571428574 0.6342142857142857 1.275857142857143a0.1987142857142857 0.1987142857142857 0 0 0 0.16157142857142856 0.11792857142857144l1.408642857142857 0.21357142857142858a0.21357142857142858 0.21357142857142858 0 0 1 0.11792857142857144 0.36864285714285716L7.967142857142857 5.554714285714286a0.20614285714285716 0.20614285714285716 0 0 0 0 0.1922142857142857l0.19964285714285715 1.4002857142857144a0.21357142857142858 0.21357142857142858 0 0 1 -0.3175714285714286 0.22842857142857143l-1.2535714285714288 -0.663a0.2507142857142857 0.2507142857142857 0 0 0 -0.20614285714285716 0l-1.2535714285714288 0.663a0.21357142857142858 0.21357142857142858 0 0 1 -0.3157142857142857 -0.22842857142857143l0.23585714285714288 -1.4002857142857144a0.20614285714285716 0.20614285714285716 0 0 0 -0.037142857142857144 -0.1922142857142857l-1.04 -0.9944999999999999a0.21357142857142858 0.21357142857142858 0 0 1 0.11885714285714287 -0.36214285714285716L5.506428571428572 3.992857142857143a0.1987142857142857 0.1987142857142857 0 0 0 0.16157142857142856 -0.11792857142857144L6.302214285714286 2.6a0.21357142857142858 0.21357142857142858 0 0 1 0.3835 -0.007428571428571429Z"
            stroke-width="1"></path>
        <path id="Vector_2" stroke="#4147d5" stroke-linecap="round" stroke-linejoin="round"
            d="m6.685714285714286 2.5916428571428574 0.6342142857142857 1.275857142857143a0.1987142857142857 0.1987142857142857 0 0 0 0.16157142857142856 0.11792857142857144l1.408642857142857 0.21357142857142858a0.21357142857142858 0.21357142857142858 0 0 1 0.11792857142857144 0.36864285714285716L7.967142857142857 5.554714285714286a0.20614285714285716 0.20614285714285716 0 0 0 0 0.1922142857142857l0.19964285714285715 1.4002857142857144a0.21357142857142858 0.21357142857142858 0 0 1 -0.3175714285714286 0.22842857142857143l-1.2535714285714288 -0.663a0.2507142857142857 0.2507142857142857 0 0 0 -0.20614285714285716 0l-1.2535714285714288 0.663a0.21357142857142858 0.21357142857142858 0 0 1 -0.3157142857142857 -0.22842857142857143l0.23585714285714288 -1.4002857142857144a0.20614285714285716 0.20614285714285716 0 0 0 -0.037142857142857144 -0.1922142857142857l-1.04 -0.9944999999999999a0.21357142857142858 0.21357142857142858 0 0 1 0.11885714285714287 -0.36214285714285716L5.506428571428572 3.992857142857143a0.1987142857142857 0.1987142857142857 0 0 0 0.16157142857142856 -0.11792857142857144L6.302214285714286 2.6a0.21357142857142858 0.21357142857142858 0 0 1 0.3835 -0.007428571428571429Z"
            stroke-width="1"></path>
        <path id="Vector 2353" stroke="#4147d5" stroke-linecap="round" stroke-linejoin="round"
            d="M2.499714285714286 7.367285714285715 0.4642857142857143 10.892142857142858l2.210928571428571 -0.5924285714285714 0.5933571428571429 2.211857142857143 1.7642857142857142 -3.056857142857143"
            stroke-width="1"></path>
    </g>
</svg>