
<svg version="1.0" xmlns="http://www.w3.org/2000/svg"
 width="512.000000pt" height="512.000000pt" viewBox="0 0 512.000000 512.000000"
 preserveAspectRatio="xMidYMid meet">

<g transform="translate(0.000000,512.000000) scale(0.100000,-0.100000)"
fill="#25AB75" stroke="none">
<path d="M1046 5099 l-26 -20 0 -655 c0 -641 0 -654 20 -674 30 -30 83 -27
109 6 21 26 21 35 21 620 l0 594 145 0 145 0 0 -594 c0 -585 0 -594 21 -620
26 -33 79 -36 109 -6 20 20 20 33 20 670 l0 651 -25 24 -24 25 -244 0 c-232 0
-246 -1 -271 -21z"/>
<path d="M1720 4600 c-19 -19 -20 -33 -20 -428 0 -383 1 -410 18 -425 27 -24
85 -22 108 4 18 20 19 43 22 370 l3 349 144 0 145 0 0 -350 c0 -337 1 -351 20
-370 28 -28 81 -26 108 3 22 23 22 26 22 419 0 385 -1 396 -21 422 l-20 26
-255 0 c-241 0 -255 -1 -274 -20z"/>
<path d="M2885 4456 c-94 -30 -160 -84 -206 -168 l-34 -63 -5 -365 -5 -365
-1155 -5 c-1047 -5 -1159 -7 -1196 -22 -141 -56 -247 -182 -274 -323 -8 -43
-10 -351 -8 -1095 l3 -1035 27 -57 c53 -113 158 -195 277 -218 29 -5 100 -10
156 -10 88 0 106 3 129 21 30 23 35 72 12 105 -13 17 -31 20 -153 25 -183 7
-234 32 -282 139 -18 39 -21 66 -21 193 l0 147 1811 0 1811 0 -37 -41 c-87
-97 -163 -248 -186 -372 l-12 -67 -1299 0 c-1285 0 -1298 0 -1318 -20 -28 -28
-26 -75 5 -105 l24 -25 322 0 c301 0 321 -1 317 -18 -3 -9 -34 -140 -69 -289
l-64 -273 -142 0 c-78 0 -149 -3 -158 -6 -10 -4 -23 -21 -30 -37 -16 -39 -3
-80 31 -96 18 -8 262 -11 878 -11 848 0 853 0 880 21 34 27 36 79 4 109 -20
18 -35 20 -168 20 l-146 0 -63 268 c-34 147 -65 277 -68 290 l-5 22 535 0 534
0 7 -57 c15 -124 82 -274 178 -392 91 -113 260 -218 413 -257 95 -25 295 -25
385 -1 273 73 492 293 572 574 29 102 31 294 4 393 -41 152 -143 314 -259 410
-76 63 -236 142 -337 166 -101 24 -269 23 -367 -3 l-73 -19 0 302 0 302 198 4
197 3 67 33 c77 38 130 92 167 171 l26 56 3 340 c3 335 3 341 -18 368 -24 31
-73 37 -106 13 -18 -14 -19 -32 -24 -353 -6 -384 -7 -390 -89 -448 l-43 -30
-366 -3 -366 -3 -168 -124 -168 -125 0 99 c0 84 -3 102 -21 125 l-20 26 -192
0 c-164 0 -198 3 -232 19 -51 23 -102 81 -110 123 -3 18 -4 420 -3 894 l3 860
24 36 c13 19 40 46 59 59 l36 24 745 3 c829 3 800 5 860 -63 16 -19 35 -51 40
-72 7 -23 11 -174 11 -385 0 -335 1 -349 20 -368 30 -30 83 -27 110 7 21 27
21 33 18 398 l-3 370 -29 62 c-33 73 -103 143 -173 176 l-48 22 -770 2 c-601
2 -779 -1 -810 -11z m-243 -1583 l3 -468 26 -55 c33 -70 95 -132 167 -167 54
-26 67 -28 220 -31 l162 -4 0 -133 c0 -119 2 -135 21 -159 41 -52 64 -42 301
134 l216 160 76 0 76 0 0 -320 0 -320 -1880 0 -1880 0 0 793 c0 675 2 801 15
844 19 65 85 139 150 169 l50 24 1137 0 1137 0 3 -467z m1608 -1530 l0 -88
-58 -17 c-231 -68 -380 -335 -316 -565 5 -19 -4 -27 -75 -62 l-80 -41 -11 38
c-47 164 -33 312 46 471 78 159 210 273 378 327 118 38 116 39 116 -63z m267
62 c126 -39 253 -129 324 -227 l20 -27 -79 -40 -79 -40 -48 49 c-54 55 -136
102 -207 120 l-48 12 0 89 c0 105 -4 103 117 64z m-60 -327 c118 -55 189 -174
180 -300 -18 -265 -322 -392 -520 -217 -132 116 -138 324 -13 451 93 95 235
121 353 66z m491 -119 c7 -24 15 -82 18 -129 12 -181 -54 -350 -190 -486 -127
-126 -245 -181 -411 -191 -115 -6 -212 13 -324 67 -68 33 -101 57 -170 126
l-85 86 79 42 80 42 55 -51 c30 -28 75 -63 100 -77 262 -151 619 12 681 310
11 53 8 170 -6 217 -5 17 6 26 67 57 40 20 77 36 83 34 5 -1 15 -22 23 -47z
m-2571 -499 c34 -146 65 -275 68 -287 l5 -23 -421 0 -421 0 6 23 c3 12 34 142
68 290 l63 267 285 -2 284 -3 63 -265z"/>
<path d="M646 3064 c-134 -43 -215 -143 -224 -279 -8 -131 55 -237 174 -296
113 -56 237 -41 322 38 84 80 -8 193 -96 118 -68 -57 -143 -53 -207 10 -77 78
-52 210 49 256 52 24 80 23 135 -1 60 -28 95 -26 120 6 12 15 21 33 21 40 0
85 -170 148 -294 108z"/>
<path d="M1113 3070 c-40 -16 -43 -38 -43 -307 0 -244 1 -260 20 -280 28 -31
55 -36 89 -18 33 16 39 33 43 107 l3 47 60 -71 c70 -82 102 -102 139 -88 33
12 60 54 52 82 -3 13 -31 51 -62 86 l-56 63 41 35 c70 61 91 127 66 211 -18
60 -74 116 -132 132 -45 13 -189 13 -220 1z m197 -160 c11 -11 20 -24 20 -30
0 -23 -41 -50 -75 -50 l-35 0 0 50 0 50 35 0 c22 0 43 -8 55 -20z"/>
<path d="M1702 3047 c-18 -19 -30 -69 -66 -270 -47 -260 -48 -285 -7 -306 11
-6 31 -11 45 -11 45 0 63 30 82 139 10 56 20 98 24 94 4 -5 19 -52 35 -106 31
-107 50 -130 106 -130 49 0 73 33 104 144 15 55 29 98 31 96 2 -2 13 -48 24
-103 15 -72 26 -104 41 -116 46 -39 119 -8 119 50 0 30 -84 477 -95 505 -10
24 -37 37 -77 37 -59 0 -73 -19 -108 -147 -18 -65 -36 -124 -39 -131 -4 -8
-24 43 -46 118 -27 91 -45 136 -59 146 -32 22 -89 18 -114 -9z"/>
<path d="M445 2245 c-14 -13 -25 -36 -25 -50 0 -14 11 -37 25 -50 l24 -25 906
0 c892 0 905 0 925 20 20 20 27 74 12 96 -22 33 -46 34 -947 34 l-896 0 -24
-25z"/>
<path d="M441 1914 c-24 -31 -26 -43 -9 -79 7 -16 24 -29 47 -36 24 -6 204 -9
519 -7 l484 3 19 24 c25 30 24 76 -1 101 -19 19 -33 20 -529 20 l-510 0 -20
-26z"/>
<path d="M365 4315 l-25 -24 0 -261 c0 -247 1 -261 20 -280 30 -30 83 -27 109
6 20 25 21 39 21 230 l0 204 145 0 145 0 0 -204 c0 -191 1 -205 21 -230 26
-33 79 -36 109 -6 19 19 20 33 20 284 l0 265 -26 20 c-25 20 -39 21 -271 21
l-244 0 -24 -25z"/>
<path d="M3180 4113 c-36 -15 -72 -48 -90 -83 -17 -32 -20 -59 -20 -155 0
-132 10 -165 63 -212 81 -71 216 -45 261 51 12 26 16 65 16 164 0 117 -2 132
-22 162 -37 54 -71 73 -135 77 -32 1 -65 0 -73 -4z m78 -240 c-2 -79 -6 -98
-18 -98 -12 0 -16 19 -18 98 -3 92 -2 97 18 97 20 0 21 -5 18 -97z"/>
<path d="M3643 4108 c-39 -19 -44 -53 -41 -253 3 -183 4 -187 27 -206 30 -25
76 -24 101 1 19 19 20 33 20 219 0 175 -2 201 -17 219 -22 26 -61 35 -90 20z"/>
<path d="M4025 4097 c-64 -36 -85 -88 -85 -217 0 -130 11 -170 55 -209 87 -76
212 -59 269 38 24 42 35 213 17 278 -13 49 -51 97 -92 118 -42 22 -117 19
-164 -8z m113 -217 c2 -90 -6 -117 -32 -107 -13 5 -16 23 -16 95 0 92 4 105
30 100 12 -3 16 -21 18 -88z"/>
<path d="M3634 3540 c-46 -11 -89 -45 -110 -87 -15 -31 -19 -61 -19 -158 0
-108 2 -124 24 -161 34 -61 87 -87 162 -82 71 5 105 27 137 88 19 38 22 60 22
157 0 73 -5 125 -14 146 -17 42 -66 83 -114 97 -41 11 -44 11 -88 0z m64 -243
c3 -90 1 -97 -17 -97 -10 0 -22 7 -25 16 -11 29 -6 160 6 172 25 25 33 4 36
-91z"/>
<path d="M3192 3517 c-21 -22 -22 -32 -22 -224 l0 -202 26 -20 c30 -24 43 -26
78 -10 42 19 48 51 44 254 -3 183 -4 187 -27 206 -32 26 -73 24 -99 -4z"/>
<path d="M4066 3519 l-26 -20 0 -200 0 -200 26 -26 c20 -20 31 -24 57 -19 60
12 62 17 65 236 l3 200 -25 25 c-31 30 -65 32 -100 4z"/>
<path d="M3160 2948 c-71 -36 -90 -84 -90 -228 0 -100 3 -122 23 -160 45 -90
171 -118 252 -55 58 43 67 77 63 231 -3 115 -6 136 -24 161 -26 36 -99 73
-144 73 -20 0 -56 -10 -80 -22z m100 -229 c0 -90 -2 -100 -17 -97 -15 3 -18
17 -21 87 -3 94 0 111 23 111 12 0 15 -17 15 -101z"/>
<path d="M4030 2947 c-72 -38 -90 -84 -90 -227 0 -103 3 -122 23 -160 32 -61
93 -93 165 -87 88 6 145 66 158 164 9 77 -1 204 -19 239 -46 89 -147 119 -237
71z m105 -150 c3 -12 5 -56 3 -97 -3 -67 -5 -75 -23 -75 -18 0 -20 8 -23 84
-2 46 -1 90 2 98 8 21 35 15 41 -10z"/>
<path d="M3621 2934 c-20 -25 -21 -40 -21 -214 0 -174 1 -189 21 -214 26 -33
79 -36 109 -6 19 19 20 33 20 220 0 187 -1 201 -20 220 -30 30 -83 27 -109 -6z"/>
</g>
</svg>
