
<svg version="1.0" xmlns="http://www.w3.org/2000/svg"
 width="512.000000pt" height="512.000000pt" viewBox="0 0 512.000000 512.000000"
 preserveAspectRatio="xMidYMid meet">

<g transform="translate(0.000000,512.000000) scale(0.100000,-0.100000)"
fill="#25AB75" stroke="none">
<path d="M4601 4675 c-18 -8 -62 -35 -98 -60 l-65 -46 -56 11 c-40 8 -643 10
-2007 8 -1866 -3 -1952 -4 -1997 -21 -67 -26 -141 -97 -175 -165 l-28 -57 0
-1440 0 -1440 28 -57 c30 -62 83 -115 149 -150 l43 -23 848 -3 847 -2 0 -55 0
-54 -42 -11 c-168 -40 -288 -95 -358 -162 -174 -167 -57 -367 272 -462 252
-73 617 -75 883 -6 397 104 488 381 178 543 -60 31 -186 75 -265 92 -26 5 -28
9 -28 60 l0 55 848 2 847 3 43 23 c66 35 119 88 149 150 l28 57 3 1284 2 1285
134 136 c123 124 136 141 151 194 49 168 -73 327 -249 326 -28 -1 -66 -7 -85
-15z m152 -165 c36 -28 45 -81 21 -118 -11 -15 -265 -272 -565 -570 -367 -364
-553 -542 -567 -542 -39 0 -54 13 -163 142 -119 140 -129 165 -86 212 12 13
302 220 645 460 670 469 657 461 715 416z m-527 -87 c-4 -4 -220 -156 -479
-338 -541 -380 -531 -370 -533 -501 l-2 -73 -54 -50 -54 -49 -69 19 c-160 44
-330 4 -453 -106 -71 -64 -106 -124 -151 -260 -53 -160 -82 -305 -88 -450 -6
-117 -7 -121 -39 -166 -72 -99 -215 -214 -330 -265 -124 -55 -198 -69 -359
-68 -134 1 -160 4 -240 28 -320 97 -538 321 -622 636 -26 99 -23 320 6 425 45
168 124 299 253 420 174 163 360 237 598 238 236 0 437 -81 615 -248 28 -26
60 -51 73 -56 44 -17 102 27 102 79 0 31 -75 111 -174 184 -345 257 -830 270
-1188 32 -211 -141 -368 -361 -435 -611 -23 -86 -26 -117 -26 -258 0 -141 3
-172 26 -260 49 -184 137 -337 266 -466 133 -131 300 -226 488 -276 87 -24
116 -27 263 -27 147 0 176 3 263 27 126 34 264 103 365 182 78 62 182 173 217
233 l18 30 236 5 c332 7 438 35 548 148 106 108 163 272 144 414 l-8 55 61 45
c53 39 65 44 91 38 53 -14 148 -8 185 11 19 10 196 178 393 374 l357 357 0
-1058 0 -1057 -2080 0 -2080 0 0 1267 c0 1256 0 1267 20 1309 21 43 53 71 99
84 33 10 3787 13 3777 3z m-836 -1145 l20 -26 -42 -31 c-50 -37 -92 -40 -125
-9 -38 36 -31 81 20 128 l42 40 33 -38 c18 -20 41 -49 52 -64z m-375 -11 c35
-12 40 -19 53 -66 18 -62 68 -121 132 -154 39 -20 46 -29 52 -63 16 -93 -24
-215 -96 -289 -77 -79 -197 -105 -483 -105 l-175 0 7 68 c19 186 69 379 120
466 38 65 107 126 167 148 59 21 154 19 223 -5z m1473 -1722 c-5 -62 -26 -97
-78 -132 l-33 -23 -1967 0 -1967 0 -33 23 c-52 35 -73 70 -78 132 l-4 55 2082
0 2082 0 -4 -55z m-1920 -424 c-2 -92 -6 -114 -24 -138 -73 -98 -195 -98 -268
0 -18 24 -22 46 -24 138 l-4 109 162 0 162 0 -4 -109z m-441 -198 c24 -52 95
-120 151 -146 66 -31 198 -31 264 0 56 26 127 94 151 146 10 20 19 37 21 37
22 0 190 -57 234 -79 80 -40 109 -73 96 -109 -19 -56 -144 -117 -314 -155
-132 -29 -491 -31 -619 -4 -175 38 -300 94 -330 149 -14 25 -14 29 5 55 28 38
123 87 224 117 47 14 88 25 92 25 4 1 15 -16 25 -36z"/>
<path d="M1543 3631 c-19 -12 -68 -73 -120 -149 l-88 -130 -154 -46 c-158 -47
-189 -64 -217 -118 -17 -33 -18 -101 -2 -131 6 -12 51 -74 100 -137 l88 -116
0 -167 c0 -180 4 -200 54 -246 19 -18 41 -26 79 -29 45 -4 75 3 196 47 l143
51 140 -50 c157 -56 213 -62 266 -30 21 13 41 38 54 67 19 42 20 58 13 198
l-7 152 96 124 c106 137 123 176 106 241 -22 80 -52 96 -322 173 l-57 16 -90
132 c-51 75 -103 140 -119 150 -41 23 -118 22 -159 -2z m270 -410 c8 -6 77
-30 153 -52 77 -23 145 -44 152 -48 8 -5 -17 -45 -83 -131 -53 -68 -98 -134
-102 -148 -3 -13 -3 -91 1 -173 4 -82 6 -149 3 -149 -2 0 -68 23 -146 50 -78
28 -155 50 -170 50 -16 0 -91 -22 -167 -50 -76 -27 -139 -50 -141 -50 -2 0 -3
76 -3 169 l0 170 -52 68 c-28 37 -73 96 -100 130 l-49 62 58 16 c32 9 105 31
162 48 l105 32 94 138 94 138 88 -129 c49 -71 95 -134 103 -141z"/>
</g>
</svg>
