<svg xmlns="http://www.w3.org/2000/svg" fill="none" viewBox="-0.5 -0.5 14 14" height="50" width="50">
    <g id="star-1--reward-rating-rate-social-star-media-favorite-like-stars">
        <path id="Vector" fill="#d7e0ff"
            d="M6.955 1.0121428571428572 8.431428571428572 3.992857142857143a0.4735714285714286 0.4735714285714286 0 0 0 0.3807142857142857 0.2785714285714286l3.2592857142857143 0.4828571428571429a0.5014285714285714 0.5014285714285714 0 0 1 0.2785714285714286 0.8635714285714287l-2.349285714285714 2.3307142857142855a0.49214285714285716 0.49214285714285716 0 0 0 -0.14857142857142858 0.44571428571428573l0.5664285714285714 3.2778571428571426a0.5107142857142858 0.5107142857142858 0 0 1 -0.7428571428571429 0.5385714285714286l-2.9342857142857146 -1.5507142857142857a0.5478571428571428 0.5478571428571428 0 0 0 -0.4828571428571429 0l-2.9342857142857146 1.5507142857142857a0.5107142857142858 0.5107142857142858 0 0 1 -0.7428571428571429 -0.5385714285714286L3.147857142857143 8.357142857142858a0.49214285714285716 0.49214285714285716 0 0 0 -0.14857142857142858 -0.44571428571428573L0.6221428571428572 5.617857142857143A0.5014285714285714 0.5014285714285714 0 0 1 0.9285714285714286 4.7542857142857144l3.2592857142857143 -0.4828571428571429a0.4735714285714286 0.4735714285714286 0 0 0 0.3807142857142857 -0.2785714285714286l1.4764285714285716 -2.980714285714286a0.5014285714285714 0.5014285714285714 0 0 1 0.91 0Z"
            stroke-width="1"></path>
        <path id="Vector_2" stroke="#4147d5" stroke-linecap="round" stroke-linejoin="round"
            d="M6.955 1.0121428571428572 8.431428571428572 3.992857142857143a0.4735714285714286 0.4735714285714286 0 0 0 0.3807142857142857 0.2785714285714286l3.2592857142857143 0.4828571428571429a0.5014285714285714 0.5014285714285714 0 0 1 0.2785714285714286 0.8635714285714287l-2.349285714285714 2.3307142857142855a0.49214285714285716 0.49214285714285716 0 0 0 -0.14857142857142858 0.44571428571428573l0.5664285714285714 3.2778571428571426a0.5107142857142858 0.5107142857142858 0 0 1 -0.7428571428571429 0.5385714285714286l-2.9342857142857146 -1.5507142857142857a0.5478571428571428 0.5478571428571428 0 0 0 -0.4828571428571429 0l-2.9342857142857146 1.5507142857142857a0.5107142857142858 0.5107142857142858 0 0 1 -0.7428571428571429 -0.5385714285714286L3.147857142857143 8.357142857142858a0.49214285714285716 0.49214285714285716 0 0 0 -0.14857142857142858 -0.44571428571428573L0.6221428571428572 5.617857142857143A0.5014285714285714 0.5014285714285714 0 0 1 0.9285714285714286 4.7542857142857144l3.2592857142857143 -0.4828571428571429a0.4735714285714286 0.4735714285714286 0 0 0 0.3807142857142857 -0.2785714285714286l1.4764285714285716 -2.980714285714286a0.5014285714285714 0.5014285714285714 0 0 1 0.91 0v0Z"
            stroke-width="1"></path>
    </g>
</svg>