<?xml version="1.0" standalone="no"?>
<!DOCTYPE svg PUBLIC "-//W3C//DTD SVG 20010904//EN"
 "http://www.w3.org/TR/2001/REC-SVG-20010904/DTD/svg10.dtd">
<svg version="1.0" xmlns="http://www.w3.org/2000/svg"
 width="334.000000pt" height="200pt" viewBox="0 80 334.000000 200.000000"
 preserveAspectRatio="xMidYMid meet">

<g transform="translate(0.000000,334.000000) scale(0.100000,-0.100000)"
fill="#fff" stroke="#000">
<path d="M525 2204 c-61 -31 -102 -86 -119 -156 l-6 -28 207 -1 208 0 -50 -23
c-62 -28 -111 -82 -125 -138 -6 -24 -36 -134 -66 -245 -30 -111 -54 -208 -54
-216 0 -12 21 -10 130 8 72 12 132 24 134 26 2 2 36 126 75 274 39 149 76 280
81 293 9 21 14 22 149 22 l139 0 20 83 c12 46 24 91 28 100 6 16 -22 17 -357
17 -310 0 -368 -2 -394 -16z"/>
<path d="M1310 2217 c0 -8 -209 -779 -212 -782 -2 -1 -185 -33 -408 -70 -223
-37 -407 -69 -410 -72 -2 -2 207 -2 465 -1 l470 3 47 28 c65 38 88 83 138 272
23 88 45 166 49 173 5 9 53 -69 136 -220 70 -128 132 -239 137 -245 7 -9 43
-13 114 -13 89 0 103 2 108 18 3 9 48 179 101 377 52 198 99 369 104 380 7 17
55 26 447 86 l439 67 -493 1 c-531 1 -534 1 -590 -52 -38 -35 -55 -80 -103
-259 -24 -93 -47 -168 -50 -168 -4 0 -66 108 -139 240 l-132 240 -109 0 c-60
0 -109 -1 -109 -3z"/>
<path d="M2637 2110 c-432 -65 -387 -48 -466 -180 -148 -244 -105 -493 101
-594 70 -34 227 -53 311 -37 171 31 317 127 317 208 0 47 -22 81 -64 98 -29
12 -33 11 -65 -17 -109 -96 -302 -104 -375 -17 -99 117 -13 354 159 438 72 36
188 41 248 12 28 -14 51 -34 63 -56 21 -39 30 -39 101 1 50 29 93 87 93 126 0
15 -10 38 -22 51 l-23 24 -378 -57z"/>
<path d="M1149 1231 c-55 -55 -20 -121 53 -100 36 10 34 8 42 37 6 18 3 22
-13 22 -12 0 -21 -6 -21 -14 0 -16 -19 -25 -37 -19 -18 6 -16 48 1 62 8 7 30
11 48 9 24 -2 33 1 33 12 0 10 -12 16 -38 18 -31 3 -43 -2 -68 -27z"/>
<path d="M1296 1206 c-9 -30 -16 -59 -16 -65 0 -17 28 -13 39 7 10 16 12 16
25 0 17 -23 51 -24 42 -2 -3 8 4 29 16 45 31 41 16 63 -45 67 l-45 3 -16 -55z
m82 7 c-2 -10 -13 -19 -26 -21 -24 -4 -25 -2 -16 22 9 23 46 21 42 -1z"/>
<path d="M1487 1249 c-25 -15 -49 -67 -42 -90 13 -40 78 -45 119 -10 51 44 35
111 -27 111 -17 0 -40 -5 -50 -11z m71 -41 c4 -19 -34 -61 -50 -56 -26 9 -33
36 -13 58 22 24 58 23 63 -2z"/>
<path d="M1645 1250 c-3 -5 -9 -32 -12 -59 -5 -42 -3 -50 14 -60 48 -25 98 17
118 102 6 23 4 27 -13 27 -16 0 -22 -9 -27 -39 -7 -45 -33 -74 -54 -62 -11 7
-11 15 -2 41 6 18 11 39 11 46 0 16 -26 19 -35 4z"/>
<path d="M1796 1202 c-20 -73 -20 -72 4 -72 11 0 20 7 20 15 0 9 9 15 24 15
29 0 76 36 76 59 0 28 -21 41 -66 41 l-41 0 -17 -58z m84 13 c0 -9 -10 -19
-22 -24 -28 -11 -32 -8 -23 18 7 24 45 29 45 6z"/>
</g>
</svg>
